<?xml version="1.0" encoding="UTF-8" standalone="no"?>
<svg
   xmlns:dc="http://purl.org/dc/elements/1.1/"
   xmlns:cc="http://creativecommons.org/ns#"
   xmlns:rdf="http://www.w3.org/1999/02/22-rdf-syntax-ns#"
   xmlns:svg="http://www.w3.org/2000/svg"
   xmlns="http://www.w3.org/2000/svg"
   xmlns:sodipodi="http://sodipodi.sourceforge.net/DTD/sodipodi-0.dtd"
   xmlns:inkscape="http://www.inkscape.org/namespaces/inkscape"
   width="900pt"
   height="896pt"
   viewBox="0 0 900 896"
   version="1.1"
   id="svg3137"
   inkscape:version="0.48.0 r9654"
   sodipodi:docname="logo.png">
  <metadata
     id="metadata3287">
    <rdf:RDF>
      <cc:Work
         rdf:about="">
        <dc:format>image/svg+xml</dc:format>
        <dc:type
           rdf:resource="http://purl.org/dc/dcmitype/StillImage" />
        <dc:title></dc:title>
      </cc:Work>
    </rdf:RDF>
  </metadata>
  <defs
     id="defs3285" />
  <sodipodi:namedview
     pagecolor="#ffffff"
     bordercolor="#666666"
     borderopacity="1"
     objecttolerance="10"
     gridtolerance="10"
     guidetolerance="10"
     inkscape:pageopacity="0"
     inkscape:pageshadow="2"
     inkscape:window-width="1366"
     inkscape:window-height="706"
     id="namedview3283"
     showgrid="false"
     inkscape:zoom="0.51964286"
     inkscape:cx="614.02675"
     inkscape:cy="308.74308"
     inkscape:window-x="-8"
     inkscape:window-y="-8"
     inkscape:window-maximized="1"
     inkscape:current-layer="svg3137" />
  <path
     fill="#801c85"
     d=" M 439.86 0.00 L 460.52 0.00 C 500.63 1.43 540.70 7.29 579.17 18.90 C 656.56 41.95 727.38 86.51 781.73 146.22 C 834.18 203.30 871.29 274.33 888.10 350.01 C 900.91 407.30 902.34 467.08 892.29 524.92 C 882.61 581.36 861.75 635.81 831.48 684.40 C 781.84 764.33 706.44 827.95 619.16 863.16 C 570.42 883.17 518.07 893.68 465.51 896.00 L 435.54 896.00 C 404.44 894.46 373.40 890.54 343.15 883.03 C 266.67 864.36 195.45 824.87 138.90 770.11 C 84.51 717.77 43.66 651.46 21.65 579.24 C -6.29 488.32 -4.22 388.50 27.59 298.85 C 55.73 218.83 107.41 147.38 174.29 95.25 C 233.24 49.02 303.98 17.92 377.97 6.02 C 398.45 2.72 419.14 0.84 439.86 0.00 Z"
     id="path3141" />
  <path
     fill="#fdfcfd"
     d=" M 414.57 20.85 C 461.92 16.97 509.94 20.71 556.00 32.42 C 632.87 51.66 703.98 93.00 759.01 149.98 C 812.50 205.02 850.82 274.69 868.30 349.44 C 885.84 423.91 883.12 503.07 860.26 576.10 C 845.20 624.25 821.52 669.68 790.66 709.59 C 759.20 750.38 720.37 785.47 676.56 812.58 C 631.75 840.41 581.74 859.84 529.88 869.46 C 461.34 882.26 389.68 878.27 323.07 857.58 C 249.84 834.96 183.00 792.15 131.75 735.18 C 78.99 677.07 42.77 604.12 28.54 526.93 C 16.38 461.39 19.54 393.02 38.06 328.97 C 57.47 261.52 93.94 199.10 143.01 148.93 C 191.12 99.51 251.30 61.87 316.91 40.53 C 348.54 30.18 381.40 23.57 414.57 20.85 Z"
     id="path3145" />
  <path
     fill="#030204"
     d=" M 425.52 23.85 C 503.47 19.19 582.69 36.36 651.44 73.49 C 719.45 109.85 777.19 165.11 816.53 231.45 C 855.44 296.50 875.97 372.20 876.00 447.96 C 875.95 515.14 859.98 582.32 829.09 642.02 C 785.69 726.77 712.92 796.03 626.12 835.17 C 567.09 862.06 501.78 874.92 436.97 872.79 C 361.71 870.61 287.17 847.83 223.57 807.51 C 159.95 767.42 107.23 710.21 72.64 643.43 C 50.80 601.44 36.11 555.74 29.41 508.88 C 20.17 444.94 25.66 378.89 45.60 317.43 C 66.75 251.63 104.51 191.32 154.15 143.27 C 203.82 94.96 265.46 59.03 332.05 39.84 C 362.47 31.03 393.89 25.68 425.52 23.85 Z"
     id="path3147" />
  <path
     fill="#fdfcfd"
     d=" M 420.92 53.00 C 425.46 47.82 430.86 42.58 437.83 41.14 C 444.24 40.77 450.67 41.08 457.07 41.44 C 463.00 42.73 467.68 47.04 471.77 51.27 C 475.48 55.21 478.78 59.67 480.34 64.93 C 479.84 73.30 482.17 82.62 477.40 90.15 C 473.37 96.35 467.81 101.56 461.44 105.30 C 455.86 108.62 449.15 107.34 443.01 107.29 C 436.53 107.48 430.76 103.89 425.66 100.29 C 417.33 93.88 414.12 83.03 413.79 72.90 C 414.48 65.83 416.20 58.56 420.92 53.00 Z"
     id="path3149" />
  <path
     fill="#fdfcfd"
     d=" M 362.86 49.49 C 369.64 48.49 376.69 46.25 383.48 48.31 C 387.75 50.03 391.31 53.56 393.30 57.68 C 393.46 59.16 393.59 60.64 393.84 62.11 C 394.16 63.40 394.27 64.71 394.30 66.03 C 393.20 69.49 392.06 73.08 389.31 75.63 C 394.13 76.16 397.54 79.99 400.24 83.65 C 403.97 90.88 402.72 100.78 396.02 105.89 C 388.29 111.85 378.04 111.79 368.90 113.78 C 364.83 114.20 359.67 115.91 356.35 112.67 C 354.94 108.19 360.17 106.98 363.35 106.13 C 362.62 103.79 362.38 101.35 362.08 98.93 C 361.60 96.68 361.30 94.41 360.86 92.16 C 359.46 83.78 358.03 75.39 355.77 67.20 C 354.95 64.59 354.29 61.81 352.59 59.60 C 350.69 59.16 347.91 60.20 346.95 57.95 C 345.88 56.35 346.61 54.11 348.28 53.24 C 352.69 50.67 357.97 50.51 362.86 49.49 Z"
     id="path3151" />
  <path
     fill="#030204"
     d=" M 436.63 53.48 C 441.46 50.14 447.54 52.05 452.98 51.86 C 459.01 53.20 463.27 58.37 466.78 63.14 C 471.05 68.55 469.24 75.74 469.30 82.07 C 466.23 89.04 460.81 95.68 453.56 98.46 C 447.02 98.82 439.12 100.03 433.98 94.94 C 426.45 88.84 422.95 78.26 425.45 68.90 C 426.68 62.43 431.26 57.05 436.63 53.48 Z"
     id="path3153" />
  <path
     fill="#030204"
     d=" M 371.91 56.33 C 375.35 55.86 378.96 54.47 382.27 56.24 C 383.79 60.05 384.50 64.16 384.48 68.26 C 382.70 70.27 381.19 72.85 378.49 73.71 C 374.96 74.63 371.32 75.09 367.72 75.59 C 367.12 69.68 365.53 63.69 366.71 57.75 C 368.21 56.72 370.18 56.76 371.91 56.33 Z"
     id="path3155" />
  <path
     fill="#fdfcfd"
     d=" M 527.10 67.15 C 532.70 62.07 539.43 57.92 546.85 56.22 C 552.46 55.00 557.72 57.67 562.99 59.09 C 567.05 60.32 571.46 61.28 574.59 64.36 C 576.89 66.32 577.80 69.58 580.55 71.04 C 581.34 68.82 582.88 66.06 585.74 67.10 C 589.43 67.89 588.77 72.38 588.29 75.16 C 587.11 79.07 586.21 83.30 583.55 86.53 C 581.71 88.94 578.09 87.49 576.55 85.49 C 574.66 78.92 570.42 72.92 564.76 69.09 C 558.88 67.07 552.20 63.59 546.13 66.89 C 540.46 69.81 534.11 73.62 532.21 80.12 C 530.67 85.65 527.88 91.37 529.83 97.18 C 531.96 102.77 534.89 108.59 539.96 112.04 C 543.81 113.69 547.89 114.88 552.00 115.72 C 556.57 115.64 561.06 114.16 565.10 112.06 C 567.17 110.94 569.64 109.05 568.69 106.34 C 566.75 104.14 563.05 104.33 561.64 101.57 C 560.80 98.77 561.51 95.82 561.79 92.98 C 569.29 95.52 576.62 98.54 583.89 101.68 C 582.41 106.56 581.76 112.19 577.69 115.74 C 572.48 120.44 565.86 123.56 559.03 125.02 C 552.86 126.38 547.04 123.48 541.24 121.86 C 537.37 120.65 533.17 119.86 530.03 117.11 C 524.73 112.69 521.95 106.11 519.79 99.73 C 517.98 94.57 517.73 88.72 519.86 83.62 C 521.94 78.01 522.47 71.44 527.10 67.15 Z"
     id="path3157" />
  <path
     fill="#fdfcfd"
     d=" M 294.83 67.82 C 300.09 65.98 305.37 62.95 311.15 64.20 C 318.95 65.72 326.54 69.16 332.55 74.39 C 336.32 77.52 337.28 82.51 339.07 86.83 C 340.71 91.47 343.35 96.20 342.11 101.29 C 340.55 108.89 337.33 116.25 332.46 122.31 C 328.75 127.12 322.44 128.11 317.17 130.37 C 311.27 132.99 304.56 132.10 298.48 130.64 C 279.51 125.30 268.80 101.09 277.61 83.43 C 279.81 78.72 282.52 73.88 287.03 71.04 C 289.47 69.61 292.22 68.85 294.83 67.82 Z"
     id="path3159" />
  <path
     fill="#030204"
     d=" M 303.69 75.85 C 308.17 73.88 313.01 76.07 317.15 77.90 C 321.02 79.89 325.36 82.12 327.22 86.31 C 328.71 89.79 329.78 93.45 331.33 96.91 C 331.86 102.88 329.49 108.61 326.78 113.79 C 325.20 116.83 322.57 119.27 319.24 120.22 C 314.96 121.51 310.72 124.46 306.08 123.23 C 299.84 121.62 293.76 118.14 290.27 112.57 C 286.71 107.07 284.75 100.38 285.73 93.82 C 287.06 89.05 288.88 84.13 292.54 80.64 C 295.89 78.33 299.96 77.40 303.69 75.85 Z"
     id="path3161" />
  <path
     fill="#fdfcfd"
     d=" M 606.69 83.78 C 606.48 81.74 606.60 79.16 608.99 78.48 C 612.42 78.25 615.62 79.85 618.66 81.26 C 622.72 83.36 626.98 85.47 630.03 88.98 C 631.48 90.53 630.90 93.18 629.08 94.19 C 627.42 95.49 625.44 94.14 623.74 93.71 C 622.15 96.23 622.70 99.30 622.84 102.12 C 623.34 105.41 623.67 109.30 626.60 111.43 C 628.85 112.79 631.56 111.84 633.76 110.82 C 637.11 109.13 640.43 107.15 642.82 104.18 C 641.16 102.88 638.69 101.50 639.36 98.95 C 639.37 96.12 642.74 95.43 644.92 96.32 C 650.75 98.08 656.28 101.06 660.93 104.99 C 662.50 106.06 662.85 107.88 662.91 109.65 C 661.91 110.49 660.97 111.45 659.78 112.00 C 657.45 111.86 655.29 110.17 652.92 110.99 C 645.81 112.73 639.38 116.47 633.16 120.20 C 625.37 125.04 618.25 132.30 616.80 141.70 C 616.90 144.25 619.68 145.38 621.24 147.03 C 621.29 147.85 621.34 148.68 621.41 149.51 C 619.85 153.27 615.39 151.95 612.52 150.72 C 607.17 148.32 601.61 145.73 597.50 141.43 C 595.76 139.95 596.09 136.89 598.43 136.22 C 601.22 135.59 603.85 137.19 606.40 138.08 C 609.48 131.70 612.38 125.13 613.62 118.12 C 615.56 108.88 614.10 99.31 611.74 90.30 C 611.16 87.41 609.02 85.37 606.69 83.78 Z"
     id="path3163" />
  <path
     fill="#030204"
     d=" M 371.52 83.35 C 376.74 82.66 382.58 80.58 387.47 83.54 C 393.34 86.93 394.26 96.52 388.45 100.46 C 383.78 103.35 378.07 103.70 372.77 104.56 C 372.04 99.77 371.53 94.95 370.82 90.16 C 370.65 87.86 370.68 85.53 371.52 83.35 Z"
     id="path3165" />
  <path
     fill="#fdfcfd"
     d=" M 215.07 110.16 C 220.12 106.33 225.59 102.48 231.90 101.16 C 234.54 100.25 235.50 103.22 236.46 105.00 C 235.54 106.35 234.48 107.60 233.20 108.61 C 233.53 115.21 237.58 120.83 240.59 126.50 C 244.85 133.55 249.00 141.37 256.23 145.80 C 261.13 149.00 267.89 144.39 268.29 139.01 C 267.76 132.69 260.89 128.56 262.13 121.80 C 263.84 119.89 266.80 119.21 268.82 121.10 C 272.74 124.47 275.66 129.01 277.63 133.76 C 279.85 139.49 276.28 145.42 272.17 149.25 C 266.22 154.61 258.99 158.25 251.94 161.92 C 248.55 163.31 244.81 165.70 241.06 164.18 C 240.18 160.22 243.52 157.92 246.33 155.97 C 239.82 145.74 233.74 135.22 226.60 125.41 C 224.36 122.43 222.19 119.32 219.14 117.11 C 217.27 117.89 214.69 118.77 213.23 116.79 C 210.81 114.74 213.20 111.61 215.07 110.16 Z"
     id="path3167" />
  <path
     fill="#fdfcfd"
     d=" M 672.56 119.04 C 673.80 117.18 675.28 114.78 677.94 115.87 C 682.88 118.00 688.12 121.49 689.36 127.11 C 690.88 135.15 688.48 143.21 685.92 150.77 C 684.63 154.46 683.90 158.41 684.74 162.29 C 687.93 165.15 692.34 163.36 695.71 161.80 C 703.33 157.94 711.20 153.56 719.98 153.51 C 726.10 153.54 731.06 158.09 734.10 163.01 C 735.62 165.34 733.48 168.18 731.02 168.52 C 729.59 168.18 728.32 167.46 726.97 166.98 C 722.83 168.89 719.74 172.40 716.63 175.62 C 710.75 182.26 704.85 188.94 699.96 196.36 C 698.51 198.49 697.43 200.85 696.85 203.36 C 693.22 203.91 689.59 204.49 685.99 205.15 C 683.22 202.79 680.59 200.23 678.77 197.06 C 678.77 196.31 678.78 194.83 678.78 194.09 C 680.78 191.77 683.60 191.97 685.95 193.69 C 691.72 190.86 695.63 185.48 700.04 180.98 C 703.30 176.74 707.92 172.98 708.89 167.48 C 704.85 167.26 701.22 169.27 697.68 170.90 C 686.59 176.69 675.83 183.13 664.39 188.21 C 667.34 173.71 674.05 160.27 677.31 145.84 C 677.61 144.22 678.31 140.32 675.48 141.42 C 670.34 144.93 666.86 150.28 662.92 154.99 C 660.19 158.79 656.85 162.39 655.39 166.90 C 654.64 168.26 656.27 169.08 656.83 170.10 C 657.06 172.29 656.33 174.72 653.93 175.31 C 649.77 174.90 646.51 172.00 643.46 169.42 C 640.63 166.86 637.18 163.92 637.51 159.69 C 640.51 156.87 644.16 159.27 646.91 161.14 C 653.32 153.17 660.00 145.42 666.11 137.21 C 669.39 132.74 672.92 128.33 674.98 123.11 C 674.07 121.81 673.27 120.45 672.56 119.04 Z"
     id="path3169" />
  <path
     fill="#fdfcfd"
     d=" M 293.96 154.84 C 348.30 127.43 410.35 115.79 470.95 120.98 C 544.43 126.84 615.41 158.42 669.26 208.70 C 667.78 209.05 666.30 209.41 664.84 209.79 C 636.19 183.73 603.07 162.54 567.18 147.93 C 518.33 127.89 464.57 120.01 412.01 124.98 C 342.15 131.27 274.70 160.94 222.75 208.04 C 221.17 207.68 219.58 207.34 218.00 207.01 C 240.85 186.35 266.32 168.51 293.96 154.84 Z"
     id="path3171" />
  <path
     fill="#030204"
     d=" M 412.01 124.98 C 464.57 120.01 518.33 127.89 567.18 147.93 C 603.07 162.54 636.19 183.73 664.84 209.79 C 654.43 212.42 644.15 215.55 634.04 219.16 C 627.75 221.55 621.53 225.66 619.11 232.23 C 616.81 238.33 612.09 243.03 606.92 246.80 C 603.02 249.84 598.34 253.56 598.43 259.01 C 598.43 263.62 602.70 266.34 606.09 268.63 C 605.27 272.57 602.94 276.65 604.36 280.70 C 605.05 283.13 607.64 284.32 610.00 284.45 C 614.29 284.78 618.54 283.70 622.61 282.46 C 631.49 279.61 639.88 275.47 648.13 271.18 C 654.75 268.56 662.02 268.29 669.04 267.62 C 685.63 266.67 703.71 269.15 716.77 280.27 C 728.51 290.23 733.18 306.11 733.39 321.05 C 733.54 341.11 727.69 360.66 720.20 379.08 C 706.24 412.71 686.09 443.34 664.56 472.56 C 651.98 487.56 636.91 500.19 623.02 513.93 C 596.26 539.38 571.02 566.82 551.14 598.07 C 532.54 627.04 518.76 659.24 511.76 692.99 C 507.08 715.31 505.20 738.22 505.90 761.01 C 519.77 757.19 533.34 752.29 547.28 748.71 C 554.72 746.74 562.04 744.37 569.44 742.26 C 571.73 723.19 576.10 704.32 583.45 686.53 C 598.45 649.40 623.52 617.55 649.71 587.69 C 683.80 549.00 720.43 512.12 748.76 468.78 C 756.74 454.61 763.22 439.64 770.74 425.24 C 770.89 436.14 772.03 447.06 771.48 457.98 C 770.75 501.48 761.25 544.85 743.56 584.61 C 718.58 641.20 677.17 690.34 625.76 724.72 C 591.16 747.99 552.05 764.51 511.26 773.16 C 466.12 782.70 418.97 782.71 373.85 773.06 C 337.10 765.24 301.75 750.99 269.82 731.20 C 235.10 709.74 204.51 681.68 179.90 649.13 C 154.64 615.63 135.89 577.24 125.06 536.70 C 113.92 495.25 111.35 451.65 116.68 409.10 C 125.76 428.85 134.85 448.64 145.18 467.78 C 165.15 498.43 189.36 526.01 213.87 553.06 C 241.28 583.52 269.72 613.52 291.49 648.45 C 309.16 676.56 321.48 708.40 324.64 741.59 C 331.89 743.71 339.16 745.79 346.36 748.09 C 360.42 752.49 374.54 756.65 388.59 761.07 C 390.60 715.22 380.87 668.91 360.40 627.82 C 345.23 596.92 324.56 568.99 301.25 543.78 C 288.61 530.12 275.27 517.12 261.73 504.36 C 251.00 494.10 239.88 484.14 230.33 472.74 C 217.25 455.16 204.90 437.01 193.94 418.03 C 180.04 393.67 167.76 367.79 162.87 339.96 C 160.08 322.94 160.47 304.09 170.17 289.19 C 177.90 276.97 192.00 270.33 205.96 268.41 C 217.78 266.63 229.85 267.42 241.56 269.59 C 246.61 270.48 250.80 273.63 255.42 275.65 C 263.64 279.38 272.01 283.32 281.07 284.43 C 284.29 284.72 288.60 284.62 290.26 281.30 C 291.57 277.05 289.92 272.65 288.40 268.70 C 291.67 266.59 295.44 264.16 296.27 260.05 C 296.93 255.68 293.90 251.89 290.82 249.20 C 286.82 245.86 282.28 243.02 279.21 238.71 C 276.03 234.67 275.17 229.17 271.34 225.59 C 267.94 222.45 263.79 220.17 259.43 218.67 C 247.40 214.50 235.16 210.91 222.75 208.04 C 274.70 160.94 342.15 131.27 412.01 124.98 Z"
     id="path3173" />
  <path
     fill="#fdfcfd"
     d=" M 189.90 134.23 C 188.01 132.08 187.08 128.40 190.13 126.76 C 193.96 125.51 196.96 129.15 199.34 131.59 C 201.81 134.71 205.50 138.15 204.48 142.53 C 201.72 146.72 197.01 143.93 193.17 143.78 C 187.72 144.08 181.53 144.31 177.34 148.30 C 174.29 151.26 170.06 153.48 168.85 157.85 C 167.29 162.92 167.69 168.40 168.70 173.54 C 169.83 178.61 174.25 181.84 177.29 185.74 C 179.72 189.00 183.62 190.68 187.53 191.30 C 192.65 191.92 198.24 192.45 203.05 190.22 C 206.35 187.89 209.48 185.23 212.28 182.31 C 215.78 177.21 217.05 170.65 216.34 164.55 C 213.91 160.73 210.46 164.45 207.88 165.93 C 204.04 166.83 200.95 163.88 198.80 161.12 C 205.15 156.55 211.15 151.48 217.83 147.39 C 220.74 151.08 224.95 154.11 226.06 158.90 C 226.91 162.57 227.27 166.36 226.65 170.08 C 226.03 177.09 224.20 184.88 218.12 189.19 C 212.07 193.79 207.13 200.92 199.10 201.98 C 191.63 202.89 183.97 201.67 176.98 198.98 C 170.77 196.61 167.54 190.41 163.05 185.94 C 157.82 180.71 157.28 172.82 157.52 165.85 C 157.77 159.29 159.04 151.84 164.60 147.60 C 169.25 143.98 173.17 139.35 178.40 136.53 C 181.94 134.48 186.19 135.61 189.90 134.23 Z"
     id="path3175" />
  <path
     fill="#801c85"
     d=" M 374.88 203.99 C 396.37 192.04 421.72 187.77 446.07 190.21 C 451.38 190.43 456.65 189.43 461.97 189.51 C 482.42 189.44 503.15 193.93 521.08 203.96 C 508.80 219.17 495.09 233.52 485.75 250.86 C 480.34 260.71 478.28 271.93 477.13 282.99 C 476.33 290.77 475.41 299.04 470.36 305.37 C 468.41 308.42 465.15 310.17 461.67 310.84 C 461.10 316.54 459.06 323.81 463.92 328.22 C 469.92 325.86 473.66 320.22 477.10 315.07 C 482.09 306.93 486.64 298.21 488.16 288.68 C 488.63 286.61 487.43 284.77 486.57 283.01 C 486.95 267.48 490.69 251.62 499.87 238.85 C 506.23 230.21 514.65 223.28 523.85 217.85 C 528.90 214.58 534.75 212.15 538.52 207.25 C 558.60 209.14 578.70 211.50 598.46 215.62 C 603.91 217.09 610.04 217.80 614.32 221.82 L 613.82 221.90 C 612.16 222.16 610.51 222.44 608.90 222.92 C 589.05 229.40 569.66 237.66 552.00 248.91 C 539.73 256.95 527.48 266.07 519.69 278.77 C 516.49 284.08 514.35 291.83 519.04 296.94 C 519.27 297.03 519.75 297.22 519.98 297.31 L 520.51 297.51 C 526.73 302.71 535.48 302.30 543.01 301.11 C 559.32 298.29 573.42 288.25 584.17 276.04 C 587.94 271.65 591.01 266.51 592.15 260.78 C 594.34 262.00 594.44 264.82 595.08 266.98 C 597.12 276.44 593.10 285.98 587.48 293.42 C 583.36 299.24 577.78 303.73 572.57 308.46 C 568.93 316.15 562.79 322.60 560.73 331.01 C 557.68 342.02 557.26 353.50 555.91 364.78 L 555.65 363.84 C 555.25 362.24 554.82 360.67 554.39 359.09 C 551.94 361.21 549.08 362.98 545.71 362.51 C 546.21 353.42 546.80 344.01 543.35 335.36 C 541.26 334.47 538.51 333.75 536.97 335.98 C 531.81 342.58 527.51 349.87 521.98 356.19 C 524.05 352.61 526.08 349.00 527.90 345.28 C 522.70 349.99 518.79 355.87 513.70 360.68 C 503.49 371.31 490.38 379.07 476.15 382.88 C 472.28 383.90 468.35 384.68 464.52 385.81 C 452.48 387.78 440.09 387.99 428.07 385.71 C 422.71 384.09 417.18 383.03 411.96 380.97 C 399.05 376.14 387.74 367.63 378.60 357.40 C 374.79 353.27 371.79 348.45 367.60 344.68 C 369.08 347.45 370.48 350.27 371.72 353.16 C 366.48 347.99 363.45 341.01 358.57 335.54 C 356.47 333.25 352.10 334.62 351.76 337.73 C 347.08 353.14 351.28 369.20 354.20 384.52 C 351.30 375.10 349.04 365.36 348.35 355.53 C 348.14 356.31 347.72 357.87 347.51 358.66 C 345.73 358.60 343.95 358.51 342.18 358.45 C 341.22 357.77 340.30 357.10 339.35 356.44 L 338.78 356.04 C 338.04 348.64 337.00 341.28 336.03 333.91 C 334.45 324.29 327.60 317.02 323.47 308.51 C 314.69 300.95 305.65 292.60 301.91 281.25 C 299.73 274.43 299.43 266.04 303.87 260.07 C 304.53 265.94 307.72 271.12 311.43 275.57 C 322.79 288.81 338.25 299.46 355.90 301.55 C 362.48 302.19 370.06 302.22 375.33 297.59 C 380.51 293.83 380.57 286.57 377.92 281.26 C 372.54 269.90 362.66 261.55 352.81 254.14 C 331.56 238.80 307.19 228.24 282.22 220.64 C 288.79 217.42 295.97 215.83 303.11 214.48 C 321.10 211.14 339.29 208.93 357.50 207.24 C 359.59 209.98 362.32 212.11 365.31 213.78 C 374.15 218.96 383.10 224.27 390.12 231.86 C 403.59 245.17 409.01 264.53 409.41 283.03 C 408.70 284.62 407.53 286.19 407.80 288.03 C 408.68 296.22 412.48 303.71 416.35 310.86 C 419.95 316.94 423.82 323.27 429.81 327.30 C 431.32 328.39 433.36 327.65 434.09 326.01 C 436.08 321.14 434.82 315.85 434.35 310.83 C 427.58 310.03 423.79 303.59 421.51 297.85 C 418.57 288.36 419.02 278.22 416.63 268.60 C 413.17 251.34 402.08 237.10 391.30 223.70 C 385.94 217.03 380.21 210.68 374.88 203.99 Z"
     id="path3177" />
  <path
     fill="#801c85"
     d=" M 112.44 214.53 C 130.32 203.16 152.23 200.59 172.98 201.20 C 188.14 201.61 203.19 203.85 218.00 207.01 C 219.58 207.34 221.17 207.68 222.75 208.04 C 235.16 210.91 247.40 214.50 259.43 218.67 C 263.79 220.17 267.94 222.45 271.34 225.59 C 275.17 229.17 276.03 234.67 279.21 238.71 C 282.28 243.02 286.82 245.86 290.82 249.20 C 293.90 251.89 296.93 255.68 296.27 260.05 C 295.44 264.16 291.67 266.59 288.40 268.70 C 289.92 272.65 291.57 277.05 290.26 281.30 C 288.60 284.62 284.29 284.72 281.07 284.43 C 272.01 283.32 263.64 279.38 255.42 275.65 C 250.80 273.63 246.61 270.48 241.56 269.59 C 229.85 267.42 217.78 266.63 205.96 268.41 C 192.00 270.33 177.90 276.97 170.17 289.19 C 160.47 304.09 160.08 322.94 162.87 339.96 C 167.76 367.79 180.04 393.67 193.94 418.03 C 204.90 437.01 217.25 455.16 230.33 472.74 C 239.88 484.14 251.00 494.10 261.73 504.36 C 275.27 517.12 288.61 530.12 301.25 543.78 C 324.56 568.99 345.23 596.92 360.40 627.82 C 380.87 668.91 390.60 715.22 388.59 761.07 C 374.54 756.65 360.42 752.49 346.36 748.09 C 349.09 727.12 346.38 705.46 338.45 685.85 C 332.23 670.52 323.63 656.30 314.41 642.62 C 304.92 628.55 294.74 614.96 284.58 601.37 C 273.01 585.82 259.14 572.23 245.86 558.17 C 222.18 534.03 199.25 508.92 180.22 480.88 C 165.08 459.44 150.18 437.82 136.58 415.37 C 117.96 384.77 101.68 352.71 88.68 319.32 C 87.54 316.42 86.24 313.58 85.17 310.66 C 81.75 290.70 80.64 269.75 86.39 250.10 C 90.55 235.68 99.63 222.54 112.44 214.53 Z"
     id="path3179" />
  <path
     fill="#801c85"
     d=" M 696.85 203.36 C 719.07 200.37 742.22 199.46 763.90 206.09 C 778.77 210.55 792.53 219.77 800.78 233.12 C 809.88 247.63 812.52 265.18 812.40 282.04 C 811.91 306.64 806.17 330.78 798.85 354.15 C 798.06 356.72 797.22 359.28 795.97 361.67 C 800.41 345.58 805.83 329.65 808.20 313.06 C 805.34 318.82 803.38 324.97 800.83 330.87 C 785.39 368.27 765.83 403.89 743.69 437.73 C 733.51 453.41 722.79 468.73 712.02 484.00 C 692.10 513.17 667.72 538.88 643.13 564.09 C 631.42 576.41 619.42 588.55 609.27 602.22 C 596.78 618.89 584.29 635.57 573.07 653.13 C 564.24 667.12 556.27 681.86 551.47 697.76 C 546.48 714.21 545.41 731.68 547.28 748.71 C 533.34 752.29 519.77 757.19 505.90 761.01 C 505.20 738.22 507.08 715.31 511.76 692.99 C 518.76 659.24 532.54 627.04 551.14 598.07 C 571.02 566.82 596.26 539.38 623.02 513.93 C 636.91 500.19 651.98 487.56 664.56 472.56 C 686.09 443.34 706.24 412.71 720.20 379.08 C 727.69 360.66 733.54 341.11 733.39 321.05 C 733.18 306.11 728.51 290.23 716.77 280.27 C 703.71 269.15 685.63 266.67 669.04 267.62 C 662.02 268.29 654.75 268.56 648.13 271.18 C 639.88 275.47 631.49 279.61 622.61 282.46 C 618.54 283.70 614.29 284.78 610.00 284.45 C 607.64 284.32 605.05 283.13 604.36 280.70 C 602.94 276.65 605.27 272.57 606.09 268.63 C 602.70 266.34 598.43 263.62 598.43 259.01 C 598.34 253.56 603.02 249.84 606.92 246.80 C 612.09 243.03 616.81 238.33 619.11 232.23 C 621.53 225.66 627.75 221.55 634.04 219.16 C 644.15 215.55 654.43 212.42 664.84 209.79 C 666.30 209.41 667.78 209.05 669.26 208.70 C 674.80 207.35 680.39 206.23 685.99 205.15 C 689.59 204.49 693.22 203.91 696.85 203.36 Z"
     id="path3181" />
  <path
     fill="#bf88b7"
     d=" M 292.08 241.08 C 287.66 234.93 283.99 228.03 282.22 220.64 C 307.19 228.24 331.56 238.80 352.81 254.14 C 362.66 261.55 372.54 269.90 377.92 281.26 C 380.57 286.57 380.51 293.83 375.33 297.59 C 377.54 294.14 377.31 289.57 374.45 286.56 C 365.18 275.24 351.36 269.23 338.69 262.60 C 335.98 266.47 333.67 271.26 328.98 273.06 C 326.25 274.14 323.54 272.12 321.99 270.02 C 318.88 265.74 317.67 260.49 316.22 255.50 C 306.32 255.31 297.70 248.82 292.08 241.08 Z"
     id="path3183" />
  <path
     fill="#bf88b7"
     d=" M 608.90 222.92 C 610.51 222.44 612.16 222.16 613.82 221.90 C 609.93 232.81 604.35 243.84 594.67 250.71 C 590.32 253.93 585.03 255.65 579.66 256.09 C 578.15 261.37 576.99 267.11 573.20 271.31 C 571.64 273.10 569.04 274.42 566.71 273.35 C 562.24 271.57 559.82 267.05 557.50 263.13 C 549.12 266.82 541.07 271.27 533.44 276.32 C 527.34 280.60 520.79 285.45 518.58 292.94 C 519.07 294.39 519.51 295.85 519.98 297.31 C 519.75 297.22 519.27 297.03 519.04 296.94 C 514.35 291.83 516.49 284.08 519.69 278.77 C 527.48 266.07 539.73 256.95 552.00 248.91 C 569.66 237.66 589.05 229.40 608.90 222.92 Z"
     id="path3185" />
  <path
     fill="#801c85"
     d=" M 200.12 285.11 C 207.36 280.13 216.59 279.65 225.08 280.12 C 242.35 281.41 258.99 286.82 275.08 292.93 C 289.45 298.73 304.78 303.86 316.04 315.03 C 326.32 324.56 332.12 338.21 333.38 352.05 C 334.28 363.33 333.55 374.69 331.81 385.85 C 330.78 394.23 328.98 402.60 329.38 411.08 C 329.62 414.08 330.02 417.53 332.48 419.60 C 345.56 430.59 355.85 444.37 366.12 457.90 C 378.47 474.46 390.29 491.46 403.99 506.96 C 413.01 516.91 422.92 526.52 435.22 532.30 C 434.50 533.36 433.72 534.39 433.03 535.47 C 418.57 527.04 405.57 515.71 396.37 501.64 C 385.22 486.53 373.58 471.79 361.94 457.06 C 353.50 446.53 344.96 436.05 335.92 426.01 C 333.35 423.03 330.13 420.67 327.69 417.58 C 326.22 413.92 326.58 409.85 326.47 405.99 C 326.80 388.58 331.23 371.42 330.26 353.97 C 330.00 347.07 327.10 340.72 324.53 334.44 C 321.48 327.10 316.77 320.41 310.60 315.36 C 298.70 305.42 284.78 298.15 270.34 292.64 C 256.75 287.60 242.53 283.89 228.02 283.05 C 219.55 282.68 210.34 283.13 203.17 288.19 C 198.39 291.42 195.62 297.28 196.29 303.03 C 197.10 311.06 201.51 318.23 206.60 324.30 C 204.42 317.44 201.17 310.32 202.88 302.98 C 204.11 296.87 209.74 292.72 215.54 291.35 C 226.24 288.67 237.40 290.66 247.96 293.03 C 268.01 298.14 287.31 306.69 304.08 318.88 C 309.43 322.56 313.09 328.09 316.24 333.65 C 321.01 342.64 324.01 352.78 323.65 363.03 C 323.34 378.77 319.49 394.25 319.49 410.01 C 319.70 413.63 319.66 417.45 321.07 420.84 C 329.21 428.40 336.48 436.83 343.72 445.25 C 361.23 465.97 377.96 487.41 392.89 510.08 C 398.52 518.00 405.42 524.96 412.78 531.28 C 417.11 534.72 421.35 538.43 426.42 540.76 C 422.64 543.36 421.38 548.04 420.09 552.18 C 416.33 566.53 420.24 581.37 424.50 595.15 C 426.05 600.97 428.56 606.73 428.30 612.87 C 426.31 614.55 424.46 616.39 422.70 618.31 C 428.13 619.39 434.02 621.91 439.40 619.27 C 444.51 616.93 446.40 610.99 446.79 605.79 C 447.83 599.89 446.52 593.97 446.31 588.06 C 445.54 582.75 445.37 577.39 444.76 572.07 C 444.46 568.70 444.57 565.19 445.90 562.04 C 447.59 560.63 450.19 561.55 452.24 561.18 C 453.90 563.79 454.10 567.00 454.17 570.02 C 453.46 580.36 451.97 590.64 451.59 601.00 C 451.89 607.23 452.43 615.03 458.29 618.70 C 463.80 622.13 470.36 619.58 476.11 618.25 C 474.38 616.34 472.54 614.54 470.56 612.89 C 470.28 606.39 472.92 600.28 474.60 594.13 C 478.70 580.62 482.42 566.09 478.68 552.07 C 477.31 547.73 475.91 542.72 471.69 540.31 C 485.79 530.86 498.48 518.97 507.43 504.45 C 525.79 477.61 546.14 452.12 568.06 428.09 C 570.81 424.58 575.98 422.45 576.45 417.57 C 578.35 398.93 573.40 380.57 572.75 362.01 C 572.97 349.16 577.50 336.47 585.16 326.18 C 589.44 320.33 595.72 316.47 601.73 312.64 C 616.81 303.51 633.30 296.62 650.47 292.61 C 661.09 290.37 672.44 288.51 683.01 291.96 C 688.69 293.75 693.73 298.72 693.87 304.94 C 694.69 311.84 691.95 318.31 689.83 324.70 C 695.56 317.44 701.21 308.72 700.18 299.04 C 699.33 291.47 692.46 286.29 685.51 284.50 C 674.13 281.55 662.16 283.27 650.79 285.45 C 628.41 290.33 606.63 299.32 588.42 313.36 C 581.45 318.54 575.86 325.51 572.46 333.51 C 569.85 339.75 566.91 346.08 566.46 352.93 C 565.16 371.74 570.17 390.23 570.19 408.99 C 569.88 411.92 570.08 415.11 568.81 417.81 C 556.00 430.09 545.09 444.18 533.95 457.95 C 520.67 474.73 507.38 491.53 494.94 508.95 C 486.65 519.20 476.35 527.76 465.09 534.59 C 464.27 533.35 463.52 532.06 462.96 530.69 C 477.71 522.90 488.82 510.00 499.34 497.37 C 514.05 479.26 526.98 459.80 541.66 441.67 C 547.98 433.71 555.06 426.38 562.63 419.61 C 565.47 417.30 565.70 413.36 565.78 409.99 C 565.98 398.42 563.09 387.10 562.12 375.61 C 560.70 360.60 560.76 344.64 567.62 330.83 C 572.55 320.32 581.15 311.90 591.01 305.95 C 598.95 301.03 607.84 298.03 616.39 294.37 C 633.62 287.67 651.41 281.55 669.96 280.12 C 678.87 279.63 688.75 280.11 696.06 285.86 C 702.09 290.63 703.89 299.03 702.28 306.29 C 699.63 318.95 691.53 329.65 682.70 338.77 C 674.06 347.39 664.40 355.33 653.10 360.18 C 640.58 365.59 627.46 369.42 614.27 372.82 C 623.89 377.93 635.14 379.15 645.88 378.30 C 664.89 376.65 682.80 368.84 698.86 358.86 C 702.46 356.70 705.76 354.03 709.50 352.10 C 697.85 362.08 684.01 369.37 669.60 374.51 C 651.92 380.24 632.72 382.03 614.42 378.41 C 604.28 376.32 594.37 371.90 587.15 364.31 C 589.84 373.77 589.57 383.76 587.06 393.22 C 607.72 398.40 629.68 399.70 650.48 394.58 C 676.63 388.29 700.20 371.65 714.69 348.97 L 713.13 349.35 L 712.36 349.52 C 713.44 348.74 714.56 348.01 715.69 347.28 C 715.18 362.93 709.75 378.18 700.81 390.97 C 689.97 406.57 675.25 419.09 659.48 429.47 C 640.55 441.91 619.84 451.39 598.55 458.98 C 601.58 461.94 605.89 462.77 609.99 462.80 C 623.47 463.06 636.61 459.28 649.43 455.52 C 654.35 454.17 659.02 451.92 664.08 451.09 C 646.68 460.69 626.76 465.41 606.97 466.17 C 591.98 466.59 576.05 465.76 562.85 457.87 C 565.28 462.79 564.68 468.31 563.04 473.37 C 587.46 477.29 613.11 477.01 636.64 468.72 C 648.35 464.50 659.77 458.52 668.47 449.47 C 667.37 449.87 665.18 450.69 664.08 451.09 C 665.53 449.77 667.44 449.28 669.31 448.83 C 637.12 497.45 585.54 532.38 528.95 545.85 C 531.21 547.78 533.72 549.39 536.30 550.88 C 528.91 548.91 522.07 545.41 515.27 542.00 C 516.12 546.96 516.85 552.07 515.43 557.01 C 536.97 559.31 559.96 559.73 580.00 550.32 L 579.00 549.88 L 578.40 549.60 C 579.12 549.57 580.56 549.49 581.28 549.46 C 560.82 576.11 536.71 600.81 506.95 616.99 C 500.32 620.52 493.37 623.52 486.10 625.48 C 483.35 626.23 481.73 628.80 479.67 630.57 C 474.06 635.83 465.79 639.43 458.12 636.90 C 454.05 635.80 450.68 633.13 447.82 630.14 C 444.06 633.42 439.93 636.65 434.86 637.46 C 427.26 638.81 419.78 634.84 414.51 629.62 C 412.94 628.23 411.71 626.27 409.62 625.65 C 394.80 621.64 381.41 613.69 368.98 604.87 C 351.40 592.09 335.97 576.59 322.18 559.85 C 319.39 556.24 316.21 552.91 313.93 548.94 C 315.25 549.21 316.58 549.53 317.90 549.87 C 317.18 549.86 315.72 549.86 315.00 549.86 C 319.99 552.89 325.70 554.39 331.35 555.66 C 347.13 558.98 363.43 558.55 379.38 556.86 C 378.11 551.85 378.65 546.69 379.62 541.69 C 373.53 544.86 367.34 547.90 360.78 549.98 C 362.65 548.68 364.45 547.29 366.19 545.83 C 312.94 533.14 264.18 501.48 231.75 457.26 C 230.34 455.44 229.05 453.51 228.08 451.42 C 242.88 464.07 261.60 471.45 280.75 474.22 C 297.74 476.81 315.08 476.01 332.02 473.43 C 330.39 468.39 329.99 463.02 331.86 457.98 C 324.44 462.69 315.71 464.66 307.08 465.61 C 282.44 468.06 257.11 463.92 234.74 453.21 C 233.26 452.44 231.83 451.57 230.40 450.73 C 246.67 455.59 262.87 461.60 279.97 462.76 C 284.67 462.92 289.64 463.07 293.99 460.98 C 295.10 460.61 295.68 459.58 296.26 458.66 C 272.66 450.62 249.98 439.59 229.54 425.26 C 213.18 413.58 198.04 399.31 188.60 381.35 C 183.06 370.87 179.85 359.13 179.67 347.26 C 179.95 347.56 180.51 348.15 180.80 348.45 C 181.58 350.18 182.26 352.00 183.37 353.57 C 198.33 374.21 220.73 389.47 245.62 395.22 C 266.26 400.17 287.98 398.76 308.47 393.77 C 305.79 384.27 305.52 374.10 308.43 364.61 C 298.61 375.15 283.98 379.37 270.01 380.46 C 253.63 381.65 236.94 379.31 221.59 373.44 C 208.58 368.17 195.90 361.41 185.35 352.05 C 189.87 354.19 193.69 357.49 198.05 359.90 C 216.33 370.94 237.26 379.37 258.96 378.46 C 266.27 377.80 274.20 376.97 280.38 372.70 C 264.76 368.44 248.91 364.18 234.60 356.43 C 224.44 350.30 215.39 342.39 207.59 333.47 C 200.46 324.94 193.99 315.12 192.56 303.85 C 191.62 296.90 194.14 289.14 200.12 285.11 Z"
     id="path3187" />
  <path
     fill="#bf88b7"
     d=" M 203.17 288.19 C 210.34 283.13 219.55 282.68 228.02 283.05 C 242.53 283.89 256.75 287.60 270.34 292.64 C 284.78 298.15 298.70 305.42 310.60 315.36 C 316.77 320.41 321.48 327.10 324.53 334.44 C 327.10 340.72 330.00 347.07 330.26 353.97 C 331.23 371.42 326.80 388.58 326.47 405.99 C 326.58 409.85 326.22 413.92 327.69 417.58 C 330.13 420.67 333.35 423.03 335.92 426.01 C 344.96 436.05 353.50 446.53 361.94 457.06 C 373.58 471.79 385.22 486.53 396.37 501.64 C 405.57 515.71 418.57 527.04 433.03 535.47 C 431.36 537.81 429.22 539.87 426.42 540.76 C 421.35 538.43 417.11 534.72 412.78 531.28 C 405.42 524.96 398.52 518.00 392.89 510.08 C 377.96 487.41 361.23 465.97 343.72 445.25 C 336.48 436.83 329.21 428.40 321.07 420.84 C 319.66 417.45 319.70 413.63 319.49 410.01 C 319.49 394.25 323.34 378.77 323.65 363.03 C 324.01 352.78 321.01 342.64 316.24 333.65 C 313.09 328.09 309.43 322.56 304.08 318.88 C 287.31 306.69 268.01 298.14 247.96 293.03 C 237.40 290.66 226.24 288.67 215.54 291.35 C 209.74 292.72 204.11 296.87 202.88 302.98 C 201.17 310.32 204.42 317.44 206.60 324.30 C 201.51 318.23 197.10 311.06 196.29 303.03 C 195.62 297.28 198.39 291.42 203.17 288.19 Z"
     id="path3189" />
  <path
     fill="#bf88b7"
     d=" M 650.79 285.45 C 662.16 283.27 674.13 281.55 685.51 284.50 C 692.46 286.29 699.33 291.47 700.18 299.04 C 701.21 308.72 695.56 317.44 689.83 324.70 C 691.95 318.31 694.69 311.84 693.87 304.94 C 693.73 298.72 688.69 293.75 683.01 291.96 C 672.44 288.51 661.09 290.37 650.47 292.61 C 633.30 296.62 616.81 303.51 601.73 312.64 C 595.72 316.47 589.44 320.33 585.16 326.18 C 577.50 336.47 572.97 349.16 572.75 362.01 C 573.40 380.57 578.35 398.93 576.45 417.57 C 575.98 422.45 570.81 424.58 568.06 428.09 C 546.14 452.12 525.79 477.61 507.43 504.45 C 498.48 518.97 485.79 530.86 471.69 540.31 C 468.75 539.39 466.82 536.97 465.09 534.59 C 476.35 527.76 486.65 519.20 494.94 508.95 C 507.38 491.53 520.67 474.73 533.95 457.95 C 545.09 444.18 556.00 430.09 568.81 417.81 C 570.08 415.11 569.88 411.92 570.19 408.99 C 570.17 390.23 565.16 371.74 566.46 352.93 C 566.91 346.08 569.85 339.75 572.46 333.51 C 575.86 325.51 581.45 318.54 588.42 313.36 C 606.63 299.32 628.41 290.33 650.79 285.45 Z"
     id="path3191" />
  <path
     fill="#bf88b7"
     d=" M 85.17 310.66 C 86.24 313.58 87.54 316.42 88.68 319.32 C 101.68 352.71 117.96 384.77 136.58 415.37 C 150.18 437.82 165.08 459.44 180.22 480.88 C 199.25 508.92 222.18 534.03 245.86 558.17 C 259.14 572.23 273.01 585.82 284.58 601.37 C 294.74 614.96 304.92 628.55 314.41 642.62 C 323.63 656.30 332.23 670.52 338.45 685.85 C 346.38 705.46 349.09 727.12 346.36 748.09 C 339.16 745.79 331.89 743.71 324.64 741.59 C 321.48 708.40 309.16 676.56 291.49 648.45 C 269.72 613.52 241.28 583.52 213.87 553.06 C 189.36 526.01 165.15 498.43 145.18 467.78 C 134.85 448.64 125.76 428.85 116.68 409.10 C 115.76 407.00 114.77 404.94 113.92 402.82 C 101.91 372.96 90.38 342.56 85.17 310.66 Z"
     id="path3193" />
  <path
     fill="#bf88b7"
     d=" M 800.83 330.87 C 803.38 324.97 805.34 318.82 808.20 313.06 C 805.83 329.65 800.41 345.58 795.97 361.67 C 789.81 381.32 781.26 400.12 773.50 419.16 C 772.80 421.28 771.82 423.28 770.74 425.24 C 763.22 439.64 756.74 454.61 748.76 468.78 C 720.43 512.12 683.80 549.00 649.71 587.69 C 623.52 617.55 598.45 649.40 583.45 686.53 C 576.10 704.32 571.73 723.19 569.44 742.26 C 562.04 744.37 554.72 746.74 547.28 748.71 C 545.41 731.68 546.48 714.21 551.47 697.76 C 556.27 681.86 564.24 667.12 573.07 653.13 C 584.29 635.57 596.78 618.89 609.27 602.22 C 619.42 588.55 631.42 576.41 643.13 564.09 C 667.72 538.88 692.10 513.17 712.02 484.00 C 722.79 468.73 733.51 453.41 743.69 437.73 C 765.83 403.89 785.39 368.27 800.83 330.87 Z"
     id="path3195" />
  <path
     fill="#bf88b7"
     d=" M 367.60 344.68 C 371.79 348.45 374.79 353.27 378.60 357.40 C 387.74 367.63 399.05 376.14 411.96 380.97 C 417.18 383.03 422.71 384.09 428.07 385.71 C 421.97 387.43 415.57 386.11 409.33 386.65 C 407.79 386.36 406.35 385.07 404.74 385.58 C 398.79 387.45 392.47 386.27 386.34 386.46 C 385.47 396.86 388.08 407.09 389.07 417.37 L 388.92 418.31 C 385.75 404.82 385.13 390.91 383.89 377.16 C 383.41 374.05 383.36 370.83 382.20 367.88 C 378.68 363.00 374.67 358.43 371.72 353.16 C 370.48 350.27 369.08 347.45 367.60 344.68 Z"
     id="path3197" />
  <path
     fill="#bf88b7"
     d=" M 513.70 360.68 C 518.79 355.87 522.70 349.99 527.90 345.28 C 526.08 349.00 524.05 352.61 521.98 356.19 C 519.50 360.51 515.95 364.09 513.31 368.28 C 511.66 373.87 511.56 379.83 511.29 385.62 L 510.62 385.77 C 504.32 387.34 497.81 386.12 491.42 386.69 L 490.94 386.71 C 490.77 386.27 490.42 385.40 490.25 384.96 C 488.18 386.00 486.09 387.00 483.98 387.94 L 483.66 387.80 C 477.70 384.80 470.73 388.00 464.52 385.81 C 468.35 384.68 472.28 383.90 476.15 382.88 C 490.38 379.07 503.49 371.31 513.70 360.68 Z"
     id="path3199" />
  <path
     fill="#bf88b7"
     d=" M 180.80 348.45 C 182.41 349.51 183.94 350.72 185.35 352.05 C 195.90 361.41 208.58 368.17 221.59 373.44 C 236.94 379.31 253.63 381.65 270.01 380.46 C 283.98 379.37 298.61 375.15 308.43 364.61 C 305.52 374.10 305.79 384.27 308.47 393.77 C 287.98 398.76 266.26 400.17 245.62 395.22 C 220.73 389.47 198.33 374.21 183.37 353.57 C 182.26 352.00 181.58 350.18 180.80 348.45 Z"
     id="path3201" />
  <path
     fill="#bf88b7"
     d=" M 713.13 349.35 L 714.69 348.97 C 700.20 371.65 676.63 388.29 650.48 394.58 C 629.68 399.70 607.72 398.40 587.06 393.22 C 589.57 383.76 589.84 373.77 587.15 364.31 C 594.37 371.90 604.28 376.32 614.42 378.41 C 632.72 382.03 651.92 380.24 669.60 374.51 C 684.01 369.37 697.85 362.08 709.50 352.10 C 710.65 351.11 711.83 350.17 713.13 349.35 Z"
     id="path3203" />
  <path
     fill="#bf88b7"
     d=" M 339.35 356.44 C 340.30 357.10 341.22 357.77 342.18 358.45 C 343.95 358.51 345.73 358.60 347.51 358.66 C 347.72 357.87 348.14 356.31 348.35 355.53 C 349.04 365.36 351.30 375.10 354.20 384.52 C 355.78 389.75 357.29 395.00 358.96 400.21 C 358.27 401.30 357.71 402.46 357.27 403.68 C 352.98 400.01 347.06 399.28 341.62 399.37 C 341.57 398.10 341.50 396.84 341.42 395.58 C 340.97 395.09 340.08 394.12 339.63 393.63 L 339.40 393.39 C 340.08 381.09 339.70 368.75 339.35 356.44 Z"
     id="path3205" />
  <path
     fill="#bf88b7"
     d=" M 554.39 359.09 C 554.82 360.67 555.25 362.24 555.65 363.84 C 555.41 378.88 555.48 393.98 557.44 408.92 C 557.52 410.61 558.30 412.47 557.30 414.02 C 556.13 406.40 555.10 398.76 554.02 391.13 C 553.78 393.20 553.60 395.28 553.40 397.36 C 548.71 397.59 543.81 398.13 539.77 400.73 C 539.18 399.43 538.59 398.13 538.00 396.83 L 537.83 396.46 C 541.50 385.44 544.62 374.10 545.71 362.51 C 549.08 362.98 551.94 361.21 554.39 359.09 Z"
     id="path3207" />
  <path
     fill="#fdfcfd"
     d=" M 386.34 386.46 C 392.47 386.27 398.79 387.45 404.74 385.58 C 403.68 388.23 403.40 391.07 402.81 393.84 C 402.35 397.15 402.61 400.55 401.82 403.82 C 401.50 410.59 401.42 417.40 401.86 424.17 C 402.56 427.37 402.29 430.69 403.07 433.88 C 403.49 437.52 404.61 441.01 405.61 444.52 C 395.68 442.49 392.50 431.38 390.08 422.92 C 389.56 421.11 389.25 419.24 389.07 417.37 C 388.08 407.09 385.47 396.86 386.34 386.46 Z"
     id="path3209" />
  <path
     fill="#fdfcfd"
     d=" M 491.42 386.69 C 497.81 386.12 504.32 387.34 510.62 385.77 C 510.58 391.84 509.84 397.91 508.92 403.90 C 508.63 406.24 508.59 408.63 507.93 410.92 C 507.62 412.93 507.45 414.97 506.91 416.94 C 505.82 422.74 504.21 428.46 501.85 433.88 C 499.56 438.78 495.84 443.55 490.18 444.53 C 492.83 435.91 493.80 426.92 493.90 417.93 C 494.31 415.92 494.28 413.86 494.20 411.82 C 493.31 403.46 493.71 394.89 491.42 386.69 Z"
     id="path3211" />
  <path
     fill="#fdfcfd"
     d=" M 409.33 386.65 C 415.57 386.11 421.97 387.43 428.07 385.71 C 440.09 387.99 452.48 387.78 464.52 385.81 C 470.73 388.00 477.70 384.80 483.66 387.80 C 472.39 392.41 460.23 395.24 447.99 394.71 C 434.67 395.34 421.46 391.98 409.33 386.65 Z"
     id="path3213" />
  <path
     fill="#fdfcfd"
     d=" M 553.40 397.36 C 553.60 395.28 553.78 393.20 554.02 391.13 C 555.10 398.76 556.13 406.40 557.30 414.02 C 547.51 422.97 538.66 432.90 529.66 442.64 C 519.90 454.04 509.80 465.45 502.78 478.83 C 501.78 482.13 498.94 484.27 496.67 486.69 C 489.47 493.81 482.55 501.24 474.96 507.96 C 473.37 509.38 471.46 510.36 469.53 511.24 C 468.79 506.46 471.12 502.05 472.18 497.52 C 473.43 493.42 474.08 489.18 475.17 485.05 C 476.00 480.11 476.45 475.12 477.14 470.17 C 477.75 461.34 477.51 452.50 477.21 443.67 C 478.86 444.61 480.22 445.94 481.39 447.42 C 481.93 448.61 482.34 449.85 482.89 451.05 C 483.38 452.28 483.74 453.56 484.27 454.79 C 484.88 457.49 485.47 460.21 486.18 462.90 C 486.43 464.63 486.64 466.37 486.86 468.13 C 487.36 469.51 487.20 473.33 489.60 471.66 C 494.13 467.25 496.66 461.28 499.92 455.96 C 503.07 450.88 505.40 445.11 509.95 441.06 C 514.71 436.41 520.67 433.08 524.93 427.91 C 527.35 424.13 529.10 419.97 530.91 415.87 C 531.71 413.91 532.54 411.97 533.38 410.02 C 533.92 408.65 534.33 407.25 534.88 405.89 C 536.08 402.93 537.14 399.91 538.00 396.83 C 538.59 398.13 539.18 399.43 539.77 400.73 C 543.81 398.13 548.71 397.59 553.40 397.36 Z"
     id="path3215" />
  <path
     fill="#fdfcfd"
     d=" M 339.63 393.63 C 340.08 394.12 340.97 395.09 341.42 395.58 C 341.50 396.84 341.57 398.10 341.62 399.37 C 347.06 399.28 352.98 400.01 357.27 403.68 C 357.71 402.46 358.27 401.30 358.96 400.21 C 359.14 400.93 359.52 402.37 359.70 403.10 C 360.38 404.77 361.06 406.45 361.66 408.16 C 362.20 409.37 362.61 410.64 363.17 411.85 C 364.00 413.96 364.88 416.06 365.75 418.16 C 367.27 421.36 368.62 424.69 370.68 427.59 C 376.13 434.08 384.18 437.87 389.20 444.77 C 395.10 453.49 399.03 463.52 405.96 471.54 C 406.67 471.41 407.39 471.29 408.12 471.18 C 408.31 469.09 408.53 467.00 408.82 464.92 C 409.31 463.00 409.66 461.05 410.11 459.13 C 410.33 458.02 410.55 456.92 410.78 455.82 C 412.41 451.19 413.39 445.46 418.36 443.16 C 418.56 453.41 417.76 463.73 418.95 473.95 C 420.14 485.17 422.83 496.18 426.27 506.90 C 426.31 507.84 426.40 509.72 426.45 510.66 C 421.47 509.71 418.41 505.28 414.78 502.18 C 407.97 496.33 402.32 489.31 395.79 483.18 C 393.48 481.19 392.71 478.16 391.23 475.61 C 388.04 470.01 384.27 464.77 380.35 459.66 C 367.94 443.85 354.20 429.14 339.89 415.05 C 339.00 414.14 338.20 413.15 337.41 412.16 C 339.17 409.48 337.78 405.99 339.12 403.13 C 339.40 399.97 339.41 396.79 339.63 393.63 Z"
     id="path3217" />
  <path
     fill="#fdfcfd"
     d=" M 113.92 402.82 C 114.77 404.94 115.76 407.00 116.68 409.10 C 111.35 451.65 113.92 495.25 125.06 536.70 C 135.89 577.24 154.64 615.63 179.90 649.13 C 204.51 681.68 235.10 709.74 269.82 731.20 C 301.75 750.99 337.10 765.24 373.85 773.06 C 418.97 782.71 466.12 782.70 511.26 773.16 C 552.05 764.51 591.16 747.99 625.76 724.72 C 677.17 690.34 718.58 641.20 743.56 584.61 C 761.25 544.85 770.75 501.48 771.48 457.98 C 772.03 447.06 770.89 436.14 770.74 425.24 C 771.82 423.28 772.80 421.28 773.50 419.16 C 780.88 487.68 765.46 558.40 730.87 617.99 C 700.66 670.23 655.95 713.99 603.05 743.04 C 568.39 762.12 530.29 774.92 491.14 780.58 C 447.16 786.94 401.90 784.61 358.88 773.42 C 284.28 754.29 217.17 708.02 172.40 645.41 C 147.41 610.70 129.27 571.11 119.32 529.52 C 109.48 488.16 107.54 444.86 113.92 402.82 Z"
     id="path3219" />
  <path
     fill="#bf88b7"
     d=" M 225.77 448.85 C 227.34 449.39 228.94 449.92 230.40 450.73 C 231.83 451.57 233.26 452.44 234.74 453.21 C 257.11 463.92 282.44 468.06 307.08 465.61 C 315.71 464.66 324.44 462.69 331.86 457.98 C 329.99 463.02 330.39 468.39 332.02 473.43 C 315.08 476.01 297.74 476.81 280.75 474.22 C 261.60 471.45 242.88 464.07 228.08 451.42 C 227.23 450.63 226.52 449.71 225.77 448.85 Z"
     id="path3221" />
  <path
     fill="#bf88b7"
     d=" M 664.08 451.09 C 665.18 450.69 667.37 449.87 668.47 449.47 C 659.77 458.52 648.35 464.50 636.64 468.72 C 613.11 477.01 587.46 477.29 563.04 473.37 C 564.68 468.31 565.28 462.79 562.85 457.87 C 576.05 465.76 591.98 466.59 606.97 466.17 C 626.76 465.41 646.68 460.69 664.08 451.09 Z"
     id="path3223" />
  <path
     fill="#801c85"
     d=" M 440.81 482.99 C 443.18 475.74 454.75 474.79 458.31 481.48 C 459.24 484.87 458.59 488.62 456.44 491.43 C 454.09 494.42 454.19 498.34 453.68 501.92 C 453.03 511.13 453.03 520.54 455.45 529.53 C 459.53 532.50 461.97 536.99 465.32 540.64 C 467.37 542.98 471.04 543.50 472.45 546.44 C 475.63 552.77 476.80 560.00 476.38 567.04 C 475.71 579.05 471.58 590.46 468.36 601.94 C 467.80 601.77 466.68 601.42 466.11 601.25 C 465.72 602.61 464.84 603.42 463.47 603.68 C 463.37 604.72 463.28 605.78 463.20 606.84 C 462.48 606.71 461.04 606.44 460.32 606.31 C 460.43 606.91 460.64 608.11 460.74 608.72 C 460.13 608.60 458.91 608.36 458.30 608.25 C 458.28 609.02 458.24 610.57 458.21 611.34 C 455.79 610.19 456.01 607.18 455.65 604.95 C 454.70 591.06 458.94 577.32 457.37 563.44 C 456.86 560.75 455.07 557.47 451.93 557.54 C 448.61 557.35 444.20 556.80 442.49 560.44 C 440.37 565.33 440.70 570.86 441.33 576.04 C 441.89 587.45 444.75 598.94 442.31 610.31 C 441.87 610.48 441.01 610.83 440.57 611.01 C 440.67 610.33 440.87 608.98 440.97 608.31 C 440.35 608.41 439.12 608.62 438.50 608.72 C 438.56 608.12 438.67 606.91 438.73 606.31 C 438.02 606.45 436.61 606.75 435.90 606.90 C 435.80 605.82 435.70 604.75 435.61 603.69 C 434.32 603.29 433.47 602.37 432.89 601.21 C 432.35 601.51 431.28 602.10 430.74 602.40 C 426.58 588.97 421.63 575.26 422.49 560.98 C 422.82 555.45 424.21 549.82 427.19 545.11 C 429.14 543.04 432.25 542.39 434.03 540.08 C 437.04 536.50 439.44 532.32 443.34 529.58 C 446.17 518.21 446.10 506.23 444.09 494.74 C 442.57 490.97 439.63 487.31 440.81 482.99 Z"
     id="path3225" />
  <path
     fill="#bf88b7"
     d=" M 360.78 549.98 C 367.34 547.90 373.53 544.86 379.62 541.69 C 378.65 546.69 378.11 551.85 379.38 556.86 C 363.43 558.55 347.13 558.98 331.35 555.66 C 325.70 554.39 319.99 552.89 315.00 549.86 C 315.72 549.86 317.18 549.86 317.90 549.87 C 326.57 550.82 335.22 551.99 343.90 552.81 C 349.66 553.25 355.38 551.85 360.78 549.98 Z"
     id="path3227" />
  <path
     fill="#bf88b7"
     d=" M 515.27 542.00 C 522.07 545.41 528.91 548.91 536.30 550.88 C 541.01 552.35 545.93 553.49 550.91 553.04 C 560.30 552.23 569.63 550.80 579.00 549.88 L 580.00 550.32 C 559.96 559.73 536.97 559.31 515.43 557.01 C 516.85 552.07 516.12 546.96 515.27 542.00 Z"
     id="path3229" />
  <path
     fill="#fdfcfd"
     d=" M 132.78 611.76 C 134.87 609.41 137.93 611.58 139.42 613.50 C 143.82 618.97 146.92 625.35 150.82 631.18 C 154.40 636.94 157.84 644.04 155.39 650.91 C 152.22 661.60 138.80 668.10 128.56 663.41 C 121.51 659.73 117.96 652.22 113.84 645.81 C 109.42 647.16 104.93 649.38 102.05 653.10 C 100.09 655.49 103.65 658.05 102.52 660.56 C 101.90 662.43 99.34 663.46 97.68 662.29 C 94.81 660.51 92.98 657.55 91.13 654.82 C 89.07 651.45 86.93 648.00 85.94 644.14 C 85.46 642.42 85.94 639.98 88.04 639.73 C 91.30 639.34 93.04 642.58 94.76 644.74 C 104.75 638.53 114.66 632.17 124.17 625.23 C 126.96 622.95 130.08 620.93 132.19 617.96 C 132.21 615.88 130.54 613.22 132.78 611.76 Z"
     id="path3231" />
  <path
     fill="#fdfcfd"
     d=" M 746.50 631.16 C 744.31 629.10 745.41 625.28 748.06 624.27 C 751.15 623.96 753.89 625.88 756.40 627.45 C 759.24 629.47 762.72 631.79 762.88 635.65 C 761.49 636.82 760.31 639.59 758.12 638.32 C 755.39 637.18 752.31 636.80 749.44 637.54 C 747.03 638.23 745.61 640.49 744.27 642.44 C 742.38 645.31 739.76 648.30 740.54 652.03 C 740.30 657.09 746.67 660.48 750.92 657.94 C 758.49 653.52 763.56 645.33 772.07 642.38 C 776.88 641.30 782.54 641.16 786.68 644.26 C 789.38 646.18 792.79 647.67 793.95 651.05 C 795.70 655.91 796.59 661.37 795.29 666.45 C 793.59 670.13 791.06 673.38 788.72 676.68 C 786.53 679.73 782.64 680.33 779.41 681.73 C 782.70 684.55 779.59 688.51 777.97 691.28 C 772.23 687.42 766.26 683.39 762.30 677.61 C 760.47 675.03 762.42 671.49 765.13 670.62 C 766.96 671.53 767.85 673.72 769.87 674.39 C 773.03 675.45 776.72 675.76 779.77 674.15 C 782.28 672.50 783.52 669.62 785.24 667.25 C 787.83 663.93 787.33 659.04 785.43 655.51 C 783.57 653.78 781.44 652.13 779.01 651.33 C 773.93 651.48 770.16 655.42 766.59 658.59 C 761.18 663.44 754.93 669.04 747.12 668.41 C 742.71 668.46 739.33 665.44 736.02 662.99 C 732.09 659.55 732.09 653.74 732.10 648.94 C 731.92 644.19 735.60 640.71 737.94 636.98 C 739.76 633.80 743.36 632.59 746.50 631.16 Z"
     id="path3233" />
  <path
     fill="#030204"
     d=" M 120.28 640.59 C 126.71 636.63 133.14 632.47 140.38 630.15 C 143.25 634.38 146.74 638.74 147.26 644.00 C 147.23 649.90 141.82 653.56 136.87 655.42 C 132.62 655.85 128.46 653.28 126.10 649.85 C 124.06 646.82 122.27 643.64 120.28 640.59 Z"
     id="path3235" />
  <path
     fill="#801c85"
     d=" M 379.16 633.67 L 379.29 633.78 C 394.13 645.78 412.31 653.70 431.21 656.40 C 461.49 660.57 492.57 651.13 517.45 633.90 C 517.17 647.28 514.77 660.99 507.72 672.57 C 499.08 687.36 483.69 697.14 467.43 701.61 C 458.86 703.87 449.85 705.68 440.99 704.12 C 423.52 701.67 406.15 694.16 394.51 680.56 C 383.38 667.73 378.96 650.37 379.16 633.67 Z"
     id="path3237" />
  <path
     fill="#bf88b7"
     d=" M 379.29 633.78 C 384.60 635.37 389.91 636.93 395.29 638.25 C 413.36 643.36 432.31 644.76 451.02 644.49 C 465.97 644.05 480.95 642.56 495.54 639.19 C 503.09 637.79 510.49 635.71 517.88 633.62 L 517.45 633.90 C 492.57 651.13 461.49 660.57 431.21 656.40 C 412.31 653.70 394.13 645.78 379.29 633.78 Z"
     id="path3239" />
  <path
     fill="#801c85"
     d=" M 395.29 638.25 C 401.53 638.93 407.73 640.04 414.03 640.09 C 425.36 640.81 436.83 639.25 448.05 641.46 C 459.25 639.36 470.69 640.73 482.01 640.11 C 486.53 639.97 491.02 639.46 495.54 639.19 C 480.95 642.56 465.97 644.05 451.02 644.49 C 432.31 644.76 413.36 643.36 395.29 638.25 Z"
     id="path3241" />
  <path
     fill="#fdfcfd"
     d=" M 161.08 659.86 C 162.67 657.71 165.57 657.68 167.50 659.44 C 172.87 663.70 177.71 669.09 180.21 675.55 C 179.84 676.39 179.48 677.23 179.13 678.09 C 175.85 679.52 173.23 676.80 170.97 674.85 C 162.16 682.73 153.36 690.63 144.50 698.46 C 141.91 700.93 139.13 704.23 139.97 708.08 C 140.19 712.02 143.20 714.79 145.62 717.58 C 148.70 720.81 153.99 722.64 158.03 720.05 C 163.41 716.59 167.72 711.76 172.61 707.68 C 177.57 703.06 183.31 698.83 186.35 692.61 C 185.73 691.52 185.10 690.44 184.47 689.38 C 184.58 687.79 185.38 686.43 186.34 685.22 C 190.27 684.71 193.14 687.85 195.65 690.37 C 198.51 693.63 201.71 696.82 203.30 700.95 C 204.13 702.68 203.34 704.77 201.54 705.49 C 199.40 706.69 197.44 704.52 195.85 703.38 C 189.82 705.09 185.33 709.73 180.73 713.72 C 175.33 718.32 170.31 723.39 164.67 727.70 C 159.89 731.33 153.18 731.42 147.87 728.93 C 142.46 726.78 138.83 722.03 135.29 717.64 C 132.22 713.15 130.07 707.56 131.09 702.05 C 131.76 697.60 134.82 694.03 137.96 691.02 C 143.75 685.78 149.66 680.66 155.42 675.39 C 158.37 672.40 161.89 669.39 162.67 665.05 C 162.28 664.58 161.51 663.63 161.12 663.16 C 161.11 662.34 161.09 660.69 161.08 659.86 Z"
     id="path3243" />
  <path
     fill="#fdfcfd"
     d=" M 709.68 676.64 C 711.42 675.21 714.74 673.27 716.18 676.11 C 717.55 678.09 715.44 679.87 714.67 681.59 C 716.35 683.21 718.19 684.68 720.27 685.80 C 727.51 689.77 735.12 693.01 742.80 696.06 C 748.06 698.09 753.36 700.29 759.01 701.01 C 760.87 700.95 762.16 699.15 764.04 699.15 C 765.71 699.34 766.68 700.79 767.67 701.98 C 766.51 706.72 762.99 710.26 759.75 713.69 C 757.44 715.95 755.01 718.31 751.92 719.45 C 749.46 720.27 748.39 717.70 747.47 716.00 C 748.24 714.59 749.05 713.21 749.91 711.87 C 747.10 708.16 742.71 706.36 738.71 704.27 C 733.68 709.49 728.64 715.16 726.25 722.13 C 724.79 725.98 727.58 730.13 730.82 732.09 C 732.81 729.88 736.47 728.21 738.44 731.41 C 739.51 735.07 736.09 738.26 734.05 740.99 C 730.56 744.47 727.23 749.14 722.09 750.02 C 718.60 749.43 718.60 744.91 720.89 742.92 C 720.98 737.92 718.57 733.41 716.80 728.88 C 713.27 721.03 709.53 713.26 705.18 705.83 C 703.50 702.95 701.66 700.12 699.05 698.02 C 697.46 699.10 695.25 701.12 693.40 699.39 C 691.12 697.87 693.04 695.00 694.08 693.29 C 698.47 687.07 703.76 681.43 709.68 676.64 Z"
     id="path3245" />
  <path
     fill="#030204"
     d=" M 706.84 689.41 C 715.20 692.82 723.20 697.05 731.41 700.78 C 728.62 704.40 725.49 708.36 720.92 709.70 C 717.30 710.62 714.64 707.36 713.29 704.47 C 710.97 699.52 708.88 694.47 706.84 689.41 Z"
     id="path3247" />
  <path
     fill="#801c85"
     d=" M 393.38 703.97 C 393.76 703.98 394.51 704.01 394.89 704.02 L 395.05 704.40 C 395.19 704.74 395.48 705.41 395.62 705.74 C 409.19 716.00 425.86 722.39 442.93 722.98 C 464.40 723.74 485.99 716.63 503.28 704.02 L 503.42 703.91 C 502.76 715.59 501.61 727.56 496.38 738.21 C 488.02 756.84 468.23 768.93 448.08 769.74 C 432.12 768.86 416.28 761.29 406.45 748.54 C 396.61 736.02 393.20 719.60 393.38 703.97 Z"
     id="path3249" />
  <path
     fill="#bf88b7"
     d=" M 483.24 709.05 C 490.01 707.74 496.65 705.89 503.28 704.02 C 485.99 716.63 464.40 723.74 442.93 722.98 C 425.86 722.39 409.19 716.00 395.62 705.74 C 395.48 705.41 395.19 704.74 395.05 704.40 C 400.79 706.39 406.66 708.02 412.63 709.18 C 435.83 714.25 460.01 713.50 483.24 709.05 Z"
     id="path3251" />
  <path
     fill="#fdfcfd"
     d=" M 206.22 709.96 C 206.21 707.74 208.77 706.34 210.73 707.22 C 215.83 708.93 219.72 712.87 223.95 716.04 C 229.40 720.58 235.66 724.45 239.69 730.44 C 243.38 735.85 243.25 743.83 238.57 748.63 C 235.95 751.51 234.12 755.95 229.83 756.57 C 226.40 757.41 222.62 753.16 219.69 756.37 C 215.66 761.97 215.04 769.36 215.15 776.06 C 214.77 778.52 217.09 779.90 218.19 781.79 C 218.68 784.15 216.61 787.35 213.93 786.73 C 210.20 785.89 206.76 782.92 206.28 778.99 C 204.02 768.50 210.17 758.31 208.31 747.82 C 208.05 745.42 205.43 743.69 203.24 745.20 C 198.62 748.17 195.02 752.82 192.92 757.87 C 191.33 760.81 195.69 762.29 195.46 765.00 C 195.70 767.77 192.26 769.16 190.12 767.76 C 184.32 764.99 179.19 760.82 174.89 756.08 C 173.23 754.51 171.99 750.93 174.74 749.84 C 177.88 749.08 180.51 751.30 182.92 752.94 C 189.95 743.85 197.05 734.79 203.34 725.16 C 205.45 721.79 207.82 718.41 208.58 714.43 C 207.61 713.09 205.72 711.87 206.22 709.96 Z"
     id="path3253" />
  <path
     fill="#801c85"
     d=" M 412.63 709.18 C 424.36 710.74 436.27 709.05 447.95 710.90 C 459.63 709.03 471.54 710.89 483.24 709.05 C 460.01 713.50 435.83 714.25 412.63 709.18 Z"
     id="path3255" />
  <path
     fill="#fdfcfd"
     d=" M 665.23 720.12 C 671.25 718.30 678.91 720.17 682.17 725.90 C 684.32 729.37 688.32 732.45 687.56 737.00 C 687.37 740.19 683.10 742.38 684.44 745.79 C 686.25 749.25 689.97 751.04 693.28 752.78 C 696.70 754.37 700.22 756.26 704.09 756.29 C 705.79 755.90 707.35 755.07 709.05 754.63 C 710.69 754.85 711.66 756.29 712.75 757.38 C 712.80 762.21 707.66 765.77 703.12 765.50 C 692.54 764.82 684.38 756.66 674.00 755.25 C 672.42 754.95 670.91 755.75 669.84 756.84 C 668.78 759.95 670.91 762.87 672.47 765.39 C 674.83 768.61 677.18 772.38 681.16 773.75 C 683.23 773.19 685.48 770.98 687.58 772.69 C 689.63 773.88 689.20 777.05 687.67 778.54 C 683.21 783.48 677.75 787.68 671.61 790.32 C 669.86 791.26 667.99 790.65 666.52 789.53 C 666.38 785.81 669.32 783.42 671.88 781.28 C 663.92 770.91 656.31 760.23 647.32 750.72 C 645.68 748.98 643.77 747.53 641.82 746.18 C 640.09 746.75 638.25 748.61 636.44 747.29 C 635.63 746.62 634.88 745.90 634.19 745.13 C 635.65 739.61 640.97 736.55 645.16 733.21 C 651.71 728.66 657.58 722.81 665.23 720.12 Z"
     id="path3257" />
  <path
     fill="#030204"
     d=" M 208.14 736.70 C 212.01 732.22 215.59 727.19 221.01 724.46 C 225.09 727.14 229.31 730.05 231.96 734.24 C 235.04 740.63 227.49 749.00 220.85 745.90 C 216.04 743.74 212.30 739.85 208.14 736.70 Z"
     id="path3259" />
  <path
     fill="#030204"
     d=" M 654.62 736.26 C 658.37 733.75 661.68 730.39 666.01 728.86 C 673.00 726.85 679.63 736.35 675.25 742.21 C 672.07 746.58 667.07 749.06 663.02 752.52 C 659.53 747.57 655.20 742.51 654.62 736.26 Z"
     id="path3261" />
  <path
     fill="#fdfcfd"
     d=" M 254.64 743.95 C 257.92 742.47 261.39 744.12 264.37 745.56 C 270.01 748.59 275.56 751.76 281.16 754.84 C 286.68 758.06 292.43 762.76 292.92 769.63 C 294.42 775.59 291.39 781.32 288.05 786.03 C 284.55 790.04 279.43 793.19 273.92 792.77 C 266.62 792.35 260.46 787.97 254.13 784.79 C 250.94 787.79 248.65 791.74 247.41 795.93 C 246.24 799.32 250.66 800.22 251.48 802.95 C 251.48 804.36 250.67 805.60 250.19 806.89 C 244.91 807.63 240.29 804.48 235.84 802.15 C 232.87 800.25 229.30 798.50 227.83 795.10 C 227.13 793.86 228.09 792.49 229.09 791.79 C 231.78 790.74 234.50 792.23 236.96 793.22 C 242.15 783.79 247.12 774.25 251.75 764.53 C 253.73 760.14 255.93 755.72 256.59 750.89 C 255.30 749.85 254.21 748.62 253.41 747.18 C 253.83 746.10 254.24 745.02 254.64 743.95 Z"
     id="path3263" />
  <path
     fill="#fdfcfd"
     d=" M 596.56 761.74 C 602.88 758.63 608.90 754.52 615.97 753.34 C 620.53 752.85 624.98 754.94 628.53 757.65 C 633.02 762.72 634.54 770.70 631.15 776.73 C 640.68 775.84 649.83 784.39 648.87 794.05 C 649.37 799.63 645.91 804.58 641.77 807.94 C 636.22 812.35 629.59 815.02 623.43 818.41 C 619.59 820.39 615.44 822.90 610.94 821.94 C 610.47 820.92 610.01 819.93 609.54 818.94 C 610.75 816.44 612.93 814.72 615.30 813.39 C 611.01 804.58 606.64 795.81 601.86 787.27 C 598.90 782.30 596.27 776.90 591.87 773.02 C 590.10 773.53 588.01 775.13 586.38 773.53 C 585.73 772.70 585.17 771.85 584.61 771.00 C 586.84 766.10 592.13 764.12 596.56 761.74 Z"
     id="path3265" />
  <path
     fill="#030204"
     d=" M 257.13 776.87 C 261.10 770.39 264.23 763.14 269.98 757.99 C 274.50 760.61 280.03 762.58 282.71 767.38 C 285.03 772.29 282.12 777.36 279.19 781.25 C 276.41 784.16 271.71 783.93 268.15 782.81 C 264.33 781.12 260.79 778.87 257.13 776.87 Z"
     id="path3267" />
  <path
     fill="#030204"
     d=" M 604.55 766.88 C 608.31 764.87 611.94 762.52 615.98 761.09 C 620.56 759.94 621.60 765.49 623.42 768.41 C 625.43 771.40 623.53 775.01 621.59 777.49 C 618.43 780.03 614.56 781.48 611.05 783.45 C 608.44 778.12 605.47 772.81 604.55 766.88 Z"
     id="path3269" />
  <path
     fill="#fdfcfd"
     d=" M 303.64 769.97 C 307.72 768.47 311.98 770.12 315.88 771.40 C 320.42 773.16 325.47 774.79 328.43 778.94 C 327.77 780.04 327.32 781.28 326.47 782.28 C 325.11 783.43 323.19 782.45 321.63 782.46 C 318.34 785.18 316.81 789.31 315.08 793.08 C 312.03 800.52 308.96 808.06 307.63 816.03 C 307.13 819.87 307.01 824.81 310.55 827.33 C 313.44 829.09 317.78 830.04 320.55 827.56 C 324.70 824.04 323.87 817.50 327.99 813.99 C 329.75 812.21 333.04 812.65 334.18 814.93 C 335.02 818.37 334.14 821.90 333.13 825.20 C 331.98 830.09 329.16 835.32 323.89 836.58 C 315.32 838.68 306.83 834.91 298.96 831.89 C 293.72 829.52 287.80 827.75 284.05 823.10 C 285.59 819.01 290.30 820.16 293.45 821.33 C 297.79 810.49 301.46 799.36 304.60 788.11 C 305.55 784.40 306.67 780.65 306.39 776.78 C 304.74 775.93 303.33 774.76 302.47 773.10 C 302.87 772.05 303.25 771.00 303.64 769.97 Z"
     id="path3271" />
  <path
     fill="#fdfcfd"
     d=" M 539.51 782.39 C 544.36 781.13 549.03 779.05 554.04 778.54 C 561.26 778.73 567.92 782.13 573.83 786.04 C 577.58 788.51 581.20 791.73 582.52 796.19 C 583.86 800.80 585.37 805.37 586.56 810.02 C 587.70 816.89 584.48 823.47 581.09 829.23 C 578.02 834.28 574.13 839.59 568.16 841.30 C 563.85 842.52 559.62 844.13 555.21 844.94 C 546.39 845.38 536.89 843.02 530.53 836.58 C 523.08 829.32 519.02 818.51 520.05 808.19 C 520.76 800.74 524.54 793.92 529.27 788.27 C 531.84 785.12 535.63 783.33 539.51 782.39 Z"
     id="path3273" />
  <path
     fill="#030204"
     d=" M 616.36 789.83 C 620.64 787.51 624.99 784.71 630.01 784.55 C 635.78 784.74 640.19 790.65 639.37 796.16 C 637.75 803.39 629.68 805.62 624.04 808.91 C 621.16 802.70 617.54 796.66 616.36 789.83 Z"
     id="path3275" />
  <path
     fill="#fdfcfd"
     d=" M 352.23 788.04 C 358.00 786.29 364.08 787.67 369.91 788.42 C 379.18 790.11 388.78 791.43 397.25 795.79 C 399.73 797.43 403.08 799.49 402.79 802.91 C 402.78 804.68 402.49 806.45 402.29 808.23 C 401.31 809.89 400.64 811.89 398.92 812.98 C 397.21 813.40 395.72 812.50 394.36 811.62 C 394.29 809.35 394.31 807.08 394.41 804.83 C 391.07 800.31 385.02 799.50 379.88 798.54 C 375.33 797.61 369.75 798.90 367.75 803.53 C 367.02 806.54 366.69 810.26 368.93 812.75 C 374.24 818.24 383.96 815.45 388.49 822.06 C 387.68 823.09 387.17 824.54 385.79 824.94 C 380.57 826.24 375.40 823.77 370.19 824.12 C 363.68 824.63 359.92 832.82 362.77 838.39 C 365.11 842.77 370.40 844.07 374.92 844.90 C 379.04 845.55 384.16 846.38 387.29 842.87 C 387.69 840.77 388.00 838.13 390.14 837.06 C 391.44 836.30 392.89 837.07 394.20 837.38 C 394.48 837.98 395.03 839.18 395.31 839.78 C 395.33 841.78 395.26 843.80 395.06 845.81 C 394.73 849.93 390.92 852.67 387.02 853.00 C 376.49 854.17 366.07 851.42 355.86 849.18 C 350.82 847.80 345.29 846.81 341.34 843.11 C 342.57 839.03 347.20 839.57 350.55 840.00 C 352.81 829.12 354.54 818.13 356.13 807.14 C 356.57 802.85 356.81 798.52 356.32 794.23 C 355.03 793.42 353.24 793.10 352.38 791.78 C 352.27 790.53 352.22 789.28 352.23 788.04 Z"
     id="path3277" />
  <path
     fill="#030204"
     d=" M 542.91 792.17 C 547.76 790.94 552.81 788.14 557.85 790.22 C 563.33 792.42 569.08 795.34 572.37 800.47 C 574.54 806.55 577.43 813.39 574.69 819.79 C 572.32 825.37 569.48 832.17 563.04 833.91 C 559.34 834.83 555.78 836.54 551.96 836.78 C 542.55 835.48 534.37 828.29 531.85 819.10 C 530.90 815.79 530.42 812.38 530.78 808.95 C 531.31 807.30 531.72 805.63 532.20 803.98 C 534.37 799.14 537.36 793.60 542.91 792.17 Z"
     id="path3279" />
  <path
     fill="#fdfcfd"
     d=" M 463.85 795.15 C 469.51 794.96 475.19 793.85 480.85 794.43 C 484.62 794.77 487.36 797.85 491.04 798.38 C 491.15 797.27 491.31 796.17 491.52 795.09 C 493.03 793.59 495.17 794.07 497.07 794.06 C 499.54 797.15 499.62 801.11 500.15 804.85 C 500.16 805.68 500.19 807.34 500.21 808.17 C 499.63 810.64 499.30 814.32 495.92 814.31 C 491.44 814.72 490.32 809.65 487.01 807.85 C 482.50 805.05 477.36 802.29 471.86 803.08 C 468.59 803.43 464.95 803.10 462.14 805.14 C 457.54 808.58 454.07 813.36 451.67 818.55 C 451.46 820.03 451.32 821.57 450.69 822.97 C 451.90 826.56 451.34 830.46 451.69 834.20 C 453.75 841.08 459.59 845.97 465.55 849.51 C 469.04 851.53 473.11 850.43 476.89 850.27 C 481.95 850.26 485.86 846.55 489.22 843.21 C 492.37 839.89 494.41 835.55 494.97 831.01 C 498.85 832.09 502.19 835.00 503.40 838.91 C 502.59 841.38 501.97 844.05 500.14 846.01 C 495.73 851.11 490.28 855.49 483.98 857.99 C 479.17 859.41 474.05 858.97 469.11 859.60 C 464.16 860.38 459.40 858.13 455.50 855.30 C 449.78 851.06 444.54 845.83 441.65 839.23 C 441.02 832.18 439.93 825.09 440.54 818.00 C 441.88 812.38 445.47 807.59 449.37 803.45 C 453.19 799.35 457.96 795.30 463.85 795.15 Z"
     id="path3281" />
</svg>
